<svg xmlns="http://www.w3.org/2000/svg" viewBox="0 0 96 96" role="img" aria-labelledby="title desc">
  <title id="title">Gmail Organizer logo</title>
  <desc id="desc">A folded mail tray with a checkmark and signal lines.</desc>
  <defs>
    <linearGradient id="panel" x1="18" x2="78" y1="18" y2="78" gradientUnits="userSpaceOnUse">
      <stop offset="0" stop-color="#e9f7ee"/>
      <stop offset="1" stop-color="#ffffff"/>
    </linearGradient>
    <linearGradient id="ribbon" x1="21" x2="75" y1="30" y2="68" gradientUnits="userSpaceOnUse">
      <stop offset="0" stop-color="#286f9f"/>
      <stop offset="1" stop-color="#1f7a47"/>
    </linearGradient>
  </defs>
  <rect width="96" height="96" rx="24" fill="#182026"/>
  <path d="M20 32c0-6.1 4.9-11 11-11h34c6.1 0 11 4.9 11 11v30c0 7.2-5.8 13-13 13H33c-7.2 0-13-5.8-13-13V32z" fill="url(#panel)"/>
  <path d="M25 33.5 48 50l23-16.5v9.7L50.9 58.1a5 5 0 0 1-5.8 0L25 43.2v-9.7z" fill="#d7e9e3"/>
  <path d="M26 30h44c1.7 0 2.4 2.1 1 3.1L51.5 47.4a6 6 0 0 1-7.1 0L25 33.1c-1.4-1-0.7-3.1 1-3.1z" fill="url(#ribbon)"/>
  <path d="M62 56.5 68.5 63 82 48.5" fill="none" stroke="#f4ca64" stroke-width="7" stroke-linecap="round" stroke-linejoin="round"/>
  <path d="M21 68h28" stroke="#1f7a47" stroke-width="6" stroke-linecap="round"/>
  <path d="M18 56h18" stroke="#286f9f" stroke-width="6" stroke-linecap="round"/>
  <circle cx="72" cy="24" r="5" fill="#f4ca64"/>
</svg>
